<mxfile host="app.diagrams.net" modified="2023-12-01T10:08:50.481Z" agent="Mozilla/5.0 (Windows NT 10.0; Win64; x64) AppleWebKit/537.36 (KHTML, like Gecko) Chrome/119.0.0.0 Safari/537.36" version="22.1.5" etag="yUoiqLA0XL3O7qSk8Z3Y" type="device">
  <diagram id="bZ2RmSLTERzLJGJ27tXK" name="Page-1">
    <mxGraphModel dx="3425" dy="1975" grid="1" gridSize="10" guides="1" tooltips="1" connect="1" arrows="1" fold="1" page="0" pageScale="1" pageWidth="827" pageHeight="1169" math="0" shadow="0">
      <root>
        <mxCell id="0" />
        <mxCell id="1" parent="0" />
        <mxCell id="n_YmGmnaLWWBgMjcNJzN-2" value="" style="rounded=0;whiteSpace=wrap;html=1;movable=0;resizable=0;rotatable=0;deletable=0;editable=0;locked=1;connectable=0;" vertex="1" parent="1">
          <mxGeometry x="-40" width="800" height="440" as="geometry" />
        </mxCell>
        <mxCell id="n_YmGmnaLWWBgMjcNJzN-3" value="High performance temporary data store&lt;br&gt;&lt;i&gt;&lt;font style=&quot;font-size: 9px;&quot;&gt;Temporary store for holding data between steps&lt;/font&gt;&lt;/i&gt;" style="rounded=0;whiteSpace=wrap;html=1;fillColor=#e1d5e7;strokeColor=#9673a6;" vertex="1" parent="1">
          <mxGeometry x="265" y="300" width="200" height="90" as="geometry" />
        </mxCell>
        <mxCell id="n_YmGmnaLWWBgMjcNJzN-11" value="" style="edgeStyle=orthogonalEdgeStyle;rounded=0;orthogonalLoop=1;jettySize=auto;html=1;" edge="1" parent="1" source="n_YmGmnaLWWBgMjcNJzN-4" target="n_YmGmnaLWWBgMjcNJzN-5">
          <mxGeometry relative="1" as="geometry" />
        </mxCell>
        <mxCell id="n_YmGmnaLWWBgMjcNJzN-4" value="Step 1" style="whiteSpace=wrap;html=1;aspect=fixed;fillColor=#fff2cc;strokeColor=#d6b656;verticalAlign=top;" vertex="1" parent="1">
          <mxGeometry x="-10" y="180" width="80" height="80" as="geometry" />
        </mxCell>
        <mxCell id="n_YmGmnaLWWBgMjcNJzN-12" value="" style="edgeStyle=orthogonalEdgeStyle;rounded=0;orthogonalLoop=1;jettySize=auto;html=1;" edge="1" parent="1" source="n_YmGmnaLWWBgMjcNJzN-5" target="n_YmGmnaLWWBgMjcNJzN-6">
          <mxGeometry relative="1" as="geometry" />
        </mxCell>
        <mxCell id="n_YmGmnaLWWBgMjcNJzN-5" value="Step 2" style="whiteSpace=wrap;html=1;aspect=fixed;fillColor=#fff2cc;strokeColor=#d6b656;verticalAlign=top;" vertex="1" parent="1">
          <mxGeometry x="100" y="180" width="80" height="80" as="geometry" />
        </mxCell>
        <mxCell id="n_YmGmnaLWWBgMjcNJzN-14" value="" style="edgeStyle=orthogonalEdgeStyle;rounded=0;orthogonalLoop=1;jettySize=auto;html=1;" edge="1" parent="1" source="n_YmGmnaLWWBgMjcNJzN-6" target="n_YmGmnaLWWBgMjcNJzN-7">
          <mxGeometry relative="1" as="geometry" />
        </mxCell>
        <mxCell id="n_YmGmnaLWWBgMjcNJzN-6" value="Step 3" style="whiteSpace=wrap;html=1;aspect=fixed;fillColor=#fff2cc;strokeColor=#d6b656;verticalAlign=top;" vertex="1" parent="1">
          <mxGeometry x="210" y="180" width="80" height="80" as="geometry" />
        </mxCell>
        <mxCell id="n_YmGmnaLWWBgMjcNJzN-15" value="" style="edgeStyle=orthogonalEdgeStyle;rounded=0;orthogonalLoop=1;jettySize=auto;html=1;" edge="1" parent="1" source="n_YmGmnaLWWBgMjcNJzN-7" target="n_YmGmnaLWWBgMjcNJzN-8">
          <mxGeometry relative="1" as="geometry" />
        </mxCell>
        <mxCell id="n_YmGmnaLWWBgMjcNJzN-7" value="Step 4" style="whiteSpace=wrap;html=1;aspect=fixed;fillColor=#fff2cc;strokeColor=#d6b656;verticalAlign=top;" vertex="1" parent="1">
          <mxGeometry x="320" y="180" width="80" height="80" as="geometry" />
        </mxCell>
        <mxCell id="n_YmGmnaLWWBgMjcNJzN-16" value="" style="edgeStyle=orthogonalEdgeStyle;rounded=0;orthogonalLoop=1;jettySize=auto;html=1;" edge="1" parent="1" source="n_YmGmnaLWWBgMjcNJzN-8" target="n_YmGmnaLWWBgMjcNJzN-9">
          <mxGeometry relative="1" as="geometry" />
        </mxCell>
        <mxCell id="n_YmGmnaLWWBgMjcNJzN-8" value="Step 5" style="whiteSpace=wrap;html=1;aspect=fixed;fillColor=#fff2cc;strokeColor=#d6b656;verticalAlign=top;" vertex="1" parent="1">
          <mxGeometry x="430" y="180" width="80" height="80" as="geometry" />
        </mxCell>
        <mxCell id="n_YmGmnaLWWBgMjcNJzN-17" value="" style="edgeStyle=orthogonalEdgeStyle;rounded=0;orthogonalLoop=1;jettySize=auto;html=1;" edge="1" parent="1" source="n_YmGmnaLWWBgMjcNJzN-9" target="n_YmGmnaLWWBgMjcNJzN-10">
          <mxGeometry relative="1" as="geometry" />
        </mxCell>
        <mxCell id="n_YmGmnaLWWBgMjcNJzN-9" value="...." style="whiteSpace=wrap;html=1;aspect=fixed;fillColor=#fff2cc;strokeColor=#d6b656;verticalAlign=top;" vertex="1" parent="1">
          <mxGeometry x="540" y="180" width="80" height="80" as="geometry" />
        </mxCell>
        <mxCell id="n_YmGmnaLWWBgMjcNJzN-10" value="Step N" style="whiteSpace=wrap;html=1;aspect=fixed;fillColor=#fff2cc;strokeColor=#d6b656;verticalAlign=top;" vertex="1" parent="1">
          <mxGeometry x="650" y="180" width="80" height="80" as="geometry" />
        </mxCell>
        <mxCell id="n_YmGmnaLWWBgMjcNJzN-18" value="Orchestration&lt;br&gt;&lt;i&gt;&lt;font style=&quot;font-size: 8px;&quot;&gt;starts/stops steps, manages data transitions&lt;/font&gt;&lt;/i&gt;" style="rounded=1;whiteSpace=wrap;html=1;fillColor=#dae8fc;strokeColor=#6c8ebf;" vertex="1" parent="1">
          <mxGeometry x="210" width="310" height="70" as="geometry" />
        </mxCell>
        <mxCell id="n_YmGmnaLWWBgMjcNJzN-19" value="" style="endArrow=classic;html=1;rounded=0;exitX=0.25;exitY=1;exitDx=0;exitDy=0;dashed=1;entryX=0;entryY=0.5;entryDx=0;entryDy=0;" edge="1" parent="1" source="n_YmGmnaLWWBgMjcNJzN-5" target="n_YmGmnaLWWBgMjcNJzN-3">
          <mxGeometry width="50" height="50" relative="1" as="geometry">
            <mxPoint x="120" y="560" as="sourcePoint" />
            <mxPoint x="260" y="360" as="targetPoint" />
          </mxGeometry>
        </mxCell>
        <mxCell id="n_YmGmnaLWWBgMjcNJzN-20" value="" style="endArrow=classic;html=1;rounded=0;entryX=0.75;entryY=1;entryDx=0;entryDy=0;dashed=1;exitX=0;exitY=0.25;exitDx=0;exitDy=0;" edge="1" parent="1" source="n_YmGmnaLWWBgMjcNJzN-3" target="n_YmGmnaLWWBgMjcNJzN-5">
          <mxGeometry width="50" height="50" relative="1" as="geometry">
            <mxPoint x="260" y="340" as="sourcePoint" />
            <mxPoint x="268" y="572" as="targetPoint" />
          </mxGeometry>
        </mxCell>
        <mxCell id="n_YmGmnaLWWBgMjcNJzN-21" value="Data Loader&lt;br&gt;&lt;i&gt;&lt;font style=&quot;font-size: 7px;&quot;&gt;External data entry point to platform&lt;/font&gt;&lt;/i&gt;" style="whiteSpace=wrap;html=1;aspect=fixed;fillColor=#e1d5e7;strokeColor=#9673a6;" vertex="1" parent="1">
          <mxGeometry x="-20" y="-110" width="100" height="100" as="geometry" />
        </mxCell>
        <mxCell id="n_YmGmnaLWWBgMjcNJzN-24" value="Input 1" style="whiteSpace=wrap;html=1;aspect=fixed;fillColor=#ffe6cc;strokeColor=#d79b00;" vertex="1" parent="1">
          <mxGeometry x="-175" y="-280" width="80" height="80" as="geometry" />
        </mxCell>
        <mxCell id="n_YmGmnaLWWBgMjcNJzN-25" value="Input 2" style="whiteSpace=wrap;html=1;aspect=fixed;fillColor=#ffe6cc;strokeColor=#d79b00;" vertex="1" parent="1">
          <mxGeometry x="-65" y="-280" width="80" height="80" as="geometry" />
        </mxCell>
        <mxCell id="n_YmGmnaLWWBgMjcNJzN-26" value="..." style="whiteSpace=wrap;html=1;aspect=fixed;fillColor=#ffe6cc;strokeColor=#d79b00;" vertex="1" parent="1">
          <mxGeometry x="45" y="-280" width="80" height="80" as="geometry" />
        </mxCell>
        <mxCell id="n_YmGmnaLWWBgMjcNJzN-27" value="Input n" style="whiteSpace=wrap;html=1;aspect=fixed;fillColor=#ffe6cc;strokeColor=#d79b00;" vertex="1" parent="1">
          <mxGeometry x="155" y="-280" width="80" height="80" as="geometry" />
        </mxCell>
        <mxCell id="n_YmGmnaLWWBgMjcNJzN-28" value="" style="endArrow=classic;html=1;rounded=0;exitX=0.5;exitY=1;exitDx=0;exitDy=0;entryX=0;entryY=0;entryDx=0;entryDy=0;dashed=1;" edge="1" parent="1" source="n_YmGmnaLWWBgMjcNJzN-24" target="n_YmGmnaLWWBgMjcNJzN-21">
          <mxGeometry width="50" height="50" relative="1" as="geometry">
            <mxPoint x="-10" y="110" as="sourcePoint" />
            <mxPoint x="40" y="60" as="targetPoint" />
          </mxGeometry>
        </mxCell>
        <mxCell id="n_YmGmnaLWWBgMjcNJzN-29" value="" style="endArrow=classic;html=1;rounded=0;exitX=0.5;exitY=1;exitDx=0;exitDy=0;entryX=0.25;entryY=0;entryDx=0;entryDy=0;dashed=1;" edge="1" parent="1" source="n_YmGmnaLWWBgMjcNJzN-25" target="n_YmGmnaLWWBgMjcNJzN-21">
          <mxGeometry width="50" height="50" relative="1" as="geometry">
            <mxPoint x="-20" y="-20" as="sourcePoint" />
            <mxPoint x="-30" y="-80" as="targetPoint" />
          </mxGeometry>
        </mxCell>
        <mxCell id="n_YmGmnaLWWBgMjcNJzN-30" value="" style="endArrow=classic;html=1;rounded=0;exitX=0.5;exitY=1;exitDx=0;exitDy=0;dashed=1;entryX=0.75;entryY=0;entryDx=0;entryDy=0;" edge="1" parent="1" source="n_YmGmnaLWWBgMjcNJzN-26" target="n_YmGmnaLWWBgMjcNJzN-21">
          <mxGeometry width="50" height="50" relative="1" as="geometry">
            <mxPoint x="-70" y="35" as="sourcePoint" />
            <mxPoint x="90" y="-120" as="targetPoint" />
          </mxGeometry>
        </mxCell>
        <mxCell id="n_YmGmnaLWWBgMjcNJzN-31" value="" style="endArrow=classic;html=1;rounded=0;exitX=0.5;exitY=1;exitDx=0;exitDy=0;dashed=1;entryX=1;entryY=0;entryDx=0;entryDy=0;" edge="1" parent="1" source="n_YmGmnaLWWBgMjcNJzN-27" target="n_YmGmnaLWWBgMjcNJzN-21">
          <mxGeometry width="50" height="50" relative="1" as="geometry">
            <mxPoint x="-70" y="80" as="sourcePoint" />
            <mxPoint x="140" y="-100" as="targetPoint" />
          </mxGeometry>
        </mxCell>
        <mxCell id="n_YmGmnaLWWBgMjcNJzN-33" value="" style="endArrow=none;dashed=1;html=1;dashPattern=1 3;strokeWidth=2;rounded=0;entryX=0.913;entryY=0.375;entryDx=0;entryDy=0;entryPerimeter=0;" edge="1" parent="1">
          <mxGeometry width="50" height="50" relative="1" as="geometry">
            <mxPoint x="30" y="134" as="sourcePoint" />
            <mxPoint x="690.3999999999996" y="134.41000000000003" as="targetPoint" />
          </mxGeometry>
        </mxCell>
        <mxCell id="n_YmGmnaLWWBgMjcNJzN-34" value="" style="endArrow=classic;html=1;rounded=0;dashed=1;" edge="1" parent="1">
          <mxGeometry width="50" height="50" relative="1" as="geometry">
            <mxPoint x="30" y="140" as="sourcePoint" />
            <mxPoint x="29.69999999999999" y="180" as="targetPoint" />
          </mxGeometry>
        </mxCell>
        <mxCell id="n_YmGmnaLWWBgMjcNJzN-38" value="" style="endArrow=classic;html=1;rounded=0;dashed=1;" edge="1" parent="1">
          <mxGeometry width="50" height="50" relative="1" as="geometry">
            <mxPoint x="140" y="140" as="sourcePoint" />
            <mxPoint x="139.7" y="180" as="targetPoint" />
          </mxGeometry>
        </mxCell>
        <mxCell id="n_YmGmnaLWWBgMjcNJzN-39" value="" style="endArrow=classic;html=1;rounded=0;dashed=1;" edge="1" parent="1">
          <mxGeometry width="50" height="50" relative="1" as="geometry">
            <mxPoint x="250" y="140" as="sourcePoint" />
            <mxPoint x="249.7" y="180" as="targetPoint" />
          </mxGeometry>
        </mxCell>
        <mxCell id="n_YmGmnaLWWBgMjcNJzN-46" value="" style="endArrow=classic;html=1;rounded=0;dashed=1;" edge="1" parent="1">
          <mxGeometry width="50" height="50" relative="1" as="geometry">
            <mxPoint x="360.3" y="140" as="sourcePoint" />
            <mxPoint x="360" y="180" as="targetPoint" />
          </mxGeometry>
        </mxCell>
        <mxCell id="n_YmGmnaLWWBgMjcNJzN-47" value="" style="endArrow=classic;html=1;rounded=0;dashed=1;" edge="1" parent="1">
          <mxGeometry width="50" height="50" relative="1" as="geometry">
            <mxPoint x="470.3" y="140" as="sourcePoint" />
            <mxPoint x="470" y="180" as="targetPoint" />
          </mxGeometry>
        </mxCell>
        <mxCell id="n_YmGmnaLWWBgMjcNJzN-48" value="" style="endArrow=classic;html=1;rounded=0;dashed=1;" edge="1" parent="1">
          <mxGeometry width="50" height="50" relative="1" as="geometry">
            <mxPoint x="689.93" y="140" as="sourcePoint" />
            <mxPoint x="689.63" y="180" as="targetPoint" />
          </mxGeometry>
        </mxCell>
        <mxCell id="n_YmGmnaLWWBgMjcNJzN-49" value="" style="endArrow=classic;html=1;rounded=0;dashed=1;" edge="1" parent="1">
          <mxGeometry width="50" height="50" relative="1" as="geometry">
            <mxPoint x="579.93" y="140" as="sourcePoint" />
            <mxPoint x="579.63" y="180" as="targetPoint" />
          </mxGeometry>
        </mxCell>
        <mxCell id="n_YmGmnaLWWBgMjcNJzN-54" value="Job run metadata" style="whiteSpace=wrap;html=1;shape=mxgraph.basic.document;fillColor=#e1d5e7;strokeColor=#9673a6;" vertex="1" parent="1">
          <mxGeometry x="920" y="190" width="60" height="60" as="geometry" />
        </mxCell>
        <mxCell id="n_YmGmnaLWWBgMjcNJzN-55" value="Output data store" style="rounded=0;whiteSpace=wrap;html=1;fillColor=#e1d5e7;strokeColor=#9673a6;" vertex="1" parent="1">
          <mxGeometry x="875" y="300" width="150" height="60" as="geometry" />
        </mxCell>
        <mxCell id="n_YmGmnaLWWBgMjcNJzN-57" value="" style="endArrow=classic;html=1;rounded=0;exitX=1;exitY=0.5;exitDx=0;exitDy=0;entryX=0;entryY=0.5;entryDx=0;entryDy=0;entryPerimeter=0;dashed=1;" edge="1" parent="1" source="n_YmGmnaLWWBgMjcNJzN-10" target="n_YmGmnaLWWBgMjcNJzN-54">
          <mxGeometry width="50" height="50" relative="1" as="geometry">
            <mxPoint x="820" y="170" as="sourcePoint" />
            <mxPoint x="830" y="220" as="targetPoint" />
          </mxGeometry>
        </mxCell>
        <mxCell id="n_YmGmnaLWWBgMjcNJzN-59" value="" style="endArrow=classic;html=1;rounded=0;entryX=0;entryY=0.5;entryDx=0;entryDy=0;dashed=1;" edge="1" parent="1" target="n_YmGmnaLWWBgMjcNJzN-55">
          <mxGeometry width="50" height="50" relative="1" as="geometry">
            <mxPoint x="800" y="330" as="sourcePoint" />
            <mxPoint x="850" y="290" as="targetPoint" />
          </mxGeometry>
        </mxCell>
        <mxCell id="n_YmGmnaLWWBgMjcNJzN-60" value="" style="endArrow=none;html=1;rounded=0;dashed=1;" edge="1" parent="1">
          <mxGeometry width="50" height="50" relative="1" as="geometry">
            <mxPoint x="800" y="330" as="sourcePoint" />
            <mxPoint x="800" y="220" as="targetPoint" />
          </mxGeometry>
        </mxCell>
        <mxCell id="n_YmGmnaLWWBgMjcNJzN-61" value="" style="endArrow=classic;html=1;rounded=0;exitX=0;exitY=1;exitDx=0;exitDy=0;entryX=1;entryY=0;entryDx=0;entryDy=0;" edge="1" parent="1" source="n_YmGmnaLWWBgMjcNJzN-18" target="n_YmGmnaLWWBgMjcNJzN-4">
          <mxGeometry width="50" height="50" relative="1" as="geometry">
            <mxPoint x="290" y="580" as="sourcePoint" />
            <mxPoint x="340" y="530" as="targetPoint" />
          </mxGeometry>
        </mxCell>
        <mxCell id="n_YmGmnaLWWBgMjcNJzN-62" value="" style="endArrow=classic;html=1;rounded=0;exitX=0.17;exitY=1.031;exitDx=0;exitDy=0;entryX=1;entryY=0;entryDx=0;entryDy=0;exitPerimeter=0;" edge="1" parent="1" source="n_YmGmnaLWWBgMjcNJzN-18">
          <mxGeometry width="50" height="50" relative="1" as="geometry">
            <mxPoint x="320" y="70" as="sourcePoint" />
            <mxPoint x="180" y="180" as="targetPoint" />
          </mxGeometry>
        </mxCell>
        <mxCell id="n_YmGmnaLWWBgMjcNJzN-63" value="" style="endArrow=classic;html=1;rounded=0;exitX=0.338;exitY=1.055;exitDx=0;exitDy=0;entryX=1;entryY=0;entryDx=0;entryDy=0;exitPerimeter=0;" edge="1" parent="1" source="n_YmGmnaLWWBgMjcNJzN-18">
          <mxGeometry width="50" height="50" relative="1" as="geometry">
            <mxPoint x="373" y="70" as="sourcePoint" />
            <mxPoint x="290" y="178" as="targetPoint" />
          </mxGeometry>
        </mxCell>
        <mxCell id="n_YmGmnaLWWBgMjcNJzN-64" value="" style="endArrow=classic;html=1;rounded=0;exitX=0.523;exitY=1.01;exitDx=0;exitDy=0;exitPerimeter=0;entryX=0.65;entryY=-0.007;entryDx=0;entryDy=0;entryPerimeter=0;" edge="1" parent="1" source="n_YmGmnaLWWBgMjcNJzN-18" target="n_YmGmnaLWWBgMjcNJzN-7">
          <mxGeometry width="50" height="50" relative="1" as="geometry">
            <mxPoint x="425" y="76" as="sourcePoint" />
            <mxPoint x="400" y="180" as="targetPoint" />
          </mxGeometry>
        </mxCell>
        <mxCell id="n_YmGmnaLWWBgMjcNJzN-65" value="" style="endArrow=classic;html=1;rounded=0;exitX=0.667;exitY=0.979;exitDx=0;exitDy=0;entryX=0;entryY=0;entryDx=0;entryDy=0;exitPerimeter=0;" edge="1" parent="1" source="n_YmGmnaLWWBgMjcNJzN-18" target="n_YmGmnaLWWBgMjcNJzN-8">
          <mxGeometry width="50" height="50" relative="1" as="geometry">
            <mxPoint x="497" y="70" as="sourcePoint" />
            <mxPoint x="510" y="180" as="targetPoint" />
          </mxGeometry>
        </mxCell>
        <mxCell id="n_YmGmnaLWWBgMjcNJzN-66" value="" style="endArrow=classic;html=1;rounded=0;exitX=0.908;exitY=0.971;exitDx=0;exitDy=0;entryX=0;entryY=0;entryDx=0;entryDy=0;exitPerimeter=0;" edge="1" parent="1" source="n_YmGmnaLWWBgMjcNJzN-18" target="n_YmGmnaLWWBgMjcNJzN-10">
          <mxGeometry width="50" height="50" relative="1" as="geometry">
            <mxPoint x="612.6400000000001" y="69.64999999999998" as="sourcePoint" />
            <mxPoint x="730" y="180" as="targetPoint" />
          </mxGeometry>
        </mxCell>
        <mxCell id="n_YmGmnaLWWBgMjcNJzN-67" value="" style="endArrow=classic;html=1;rounded=0;exitX=0.808;exitY=1.01;exitDx=0;exitDy=0;exitPerimeter=0;entryX=0;entryY=0;entryDx=0;entryDy=0;" edge="1" parent="1" source="n_YmGmnaLWWBgMjcNJzN-18" target="n_YmGmnaLWWBgMjcNJzN-9">
          <mxGeometry width="50" height="50" relative="1" as="geometry">
            <mxPoint x="534" y="69" as="sourcePoint" />
            <mxPoint x="620" y="180" as="targetPoint" />
          </mxGeometry>
        </mxCell>
        <mxCell id="n_YmGmnaLWWBgMjcNJzN-68" value="&lt;font style=&quot;font-size: 9px;&quot;&gt;JSON Step Definition&lt;/font&gt;" style="text;html=1;align=center;verticalAlign=middle;whiteSpace=wrap;rounded=0;fillColor=#f5f5f5;fontColor=#333333;strokeColor=#666666;" vertex="1" parent="1">
          <mxGeometry x="140" y="85" width="60" height="30" as="geometry" />
        </mxCell>
        <mxCell id="n_YmGmnaLWWBgMjcNJzN-71" value="REST&lt;br&gt;API Service Layer" style="rounded=0;whiteSpace=wrap;html=1;" vertex="1" parent="1">
          <mxGeometry x="-150" width="50" height="440" as="geometry" />
        </mxCell>
        <mxCell id="n_YmGmnaLWWBgMjcNJzN-77" value="" style="endArrow=none;dashed=1;html=1;dashPattern=1 3;strokeWidth=2;rounded=0;" edge="1" parent="1">
          <mxGeometry width="50" height="50" relative="1" as="geometry">
            <mxPoint x="30" y="130" as="sourcePoint" />
            <mxPoint x="30" y="-10" as="targetPoint" />
          </mxGeometry>
        </mxCell>
        <mxCell id="n_YmGmnaLWWBgMjcNJzN-78" value="" style="endArrow=none;html=1;rounded=0;entryX=1;entryY=0;entryDx=0;entryDy=0;" edge="1" parent="1" target="n_YmGmnaLWWBgMjcNJzN-71">
          <mxGeometry width="50" height="50" relative="1" as="geometry">
            <mxPoint x="-30" as="sourcePoint" />
            <mxPoint x="-320" y="160" as="targetPoint" />
          </mxGeometry>
        </mxCell>
        <mxCell id="n_YmGmnaLWWBgMjcNJzN-79" value="" style="endArrow=none;html=1;rounded=0;entryX=1;entryY=0;entryDx=0;entryDy=0;" edge="1" parent="1">
          <mxGeometry width="50" height="50" relative="1" as="geometry">
            <mxPoint x="-40" y="440" as="sourcePoint" />
            <mxPoint x="-110" y="440" as="targetPoint" />
          </mxGeometry>
        </mxCell>
        <mxCell id="n_YmGmnaLWWBgMjcNJzN-80" value="" style="shape=flexArrow;endArrow=classic;html=1;rounded=0;exitX=1.003;exitY=0.443;exitDx=0;exitDy=0;exitPerimeter=0;" edge="1" parent="1" source="n_YmGmnaLWWBgMjcNJzN-71">
          <mxGeometry width="50" height="50" relative="1" as="geometry">
            <mxPoint x="-60" y="540" as="sourcePoint" />
            <mxPoint x="-40" y="195" as="targetPoint" />
          </mxGeometry>
        </mxCell>
        <mxCell id="n_YmGmnaLWWBgMjcNJzN-81" value="" style="shape=flexArrow;endArrow=classic;html=1;rounded=0;entryX=1.03;entryY=0.545;entryDx=0;entryDy=0;entryPerimeter=0;" edge="1" parent="1" target="n_YmGmnaLWWBgMjcNJzN-71">
          <mxGeometry width="50" height="50" relative="1" as="geometry">
            <mxPoint x="-40" y="240" as="sourcePoint" />
            <mxPoint x="5" y="520" as="targetPoint" />
          </mxGeometry>
        </mxCell>
        <mxCell id="n_YmGmnaLWWBgMjcNJzN-85" value="User" style="shape=umlActor;verticalLabelPosition=bottom;verticalAlign=top;html=1;outlineConnect=0;" vertex="1" parent="1">
          <mxGeometry x="-300" y="180" width="30" height="60" as="geometry" />
        </mxCell>
        <mxCell id="n_YmGmnaLWWBgMjcNJzN-87" value="" style="endArrow=classic;startArrow=classic;html=1;rounded=0;exitX=-0.06;exitY=0.727;exitDx=0;exitDy=0;exitPerimeter=0;fillColor=#f8cecc;strokeColor=#b85450;" edge="1" parent="1">
          <mxGeometry width="50" height="50" relative="1" as="geometry">
            <mxPoint x="-150" y="219.76999999999998" as="sourcePoint" />
            <mxPoint x="-277" y="219.89" as="targetPoint" />
          </mxGeometry>
        </mxCell>
        <mxCell id="n_YmGmnaLWWBgMjcNJzN-90" value="&lt;font style=&quot;font-size: 41px;&quot;&gt;Data Flow&lt;/font&gt;" style="text;html=1;strokeColor=none;fillColor=none;align=center;verticalAlign=middle;whiteSpace=wrap;rounded=0;" vertex="1" parent="1">
          <mxGeometry x="-570" y="-360" width="400" height="30" as="geometry" />
        </mxCell>
        <mxCell id="n_YmGmnaLWWBgMjcNJzN-100" value="Docker Container Registry&lt;br style=&quot;font-size: 11px;&quot;&gt;&lt;font style=&quot;font-size: 8px;&quot;&gt;&lt;i&gt;Holds containers, accessed by steps to make instances&lt;/i&gt;&lt;/font&gt;" style="rounded=0;whiteSpace=wrap;html=1;fillColor=#60a917;fontColor=#ffffff;strokeColor=#2D7600;" vertex="1" parent="1">
          <mxGeometry x="-30" y="350" width="190" height="80" as="geometry" />
        </mxCell>
        <mxCell id="n_YmGmnaLWWBgMjcNJzN-114" value="" style="group" vertex="1" connectable="0" parent="1">
          <mxGeometry x="7.5" y="210" width="45" height="40" as="geometry" />
        </mxCell>
        <mxCell id="n_YmGmnaLWWBgMjcNJzN-115" value="" style="shape=cube;whiteSpace=wrap;html=1;boundedLbl=1;backgroundOutline=1;darkOpacity=0.05;darkOpacity2=0.1;size=5;" vertex="1" parent="n_YmGmnaLWWBgMjcNJzN-114">
          <mxGeometry width="25" height="20" as="geometry" />
        </mxCell>
        <mxCell id="n_YmGmnaLWWBgMjcNJzN-116" value="" style="shape=cube;whiteSpace=wrap;html=1;boundedLbl=1;backgroundOutline=1;darkOpacity=0.05;darkOpacity2=0.1;size=5;" vertex="1" parent="n_YmGmnaLWWBgMjcNJzN-114">
          <mxGeometry x="10" y="10" width="25" height="20" as="geometry" />
        </mxCell>
        <mxCell id="n_YmGmnaLWWBgMjcNJzN-117" value="" style="shape=cube;whiteSpace=wrap;html=1;boundedLbl=1;backgroundOutline=1;darkOpacity=0.05;darkOpacity2=0.1;size=5;" vertex="1" parent="n_YmGmnaLWWBgMjcNJzN-114">
          <mxGeometry x="20" y="20" width="25" height="20" as="geometry" />
        </mxCell>
        <mxCell id="n_YmGmnaLWWBgMjcNJzN-118" value="" style="shape=document;whiteSpace=wrap;html=1;boundedLbl=1;" vertex="1" parent="n_YmGmnaLWWBgMjcNJzN-114">
          <mxGeometry x="30" y="29" width="10" height="8" as="geometry" />
        </mxCell>
        <mxCell id="n_YmGmnaLWWBgMjcNJzN-144" value="" style="group" vertex="1" connectable="0" parent="1">
          <mxGeometry x="117.5" y="210" width="45" height="40" as="geometry" />
        </mxCell>
        <mxCell id="n_YmGmnaLWWBgMjcNJzN-145" value="" style="shape=cube;whiteSpace=wrap;html=1;boundedLbl=1;backgroundOutline=1;darkOpacity=0.05;darkOpacity2=0.1;size=5;" vertex="1" parent="n_YmGmnaLWWBgMjcNJzN-144">
          <mxGeometry width="25" height="20" as="geometry" />
        </mxCell>
        <mxCell id="n_YmGmnaLWWBgMjcNJzN-146" value="" style="shape=cube;whiteSpace=wrap;html=1;boundedLbl=1;backgroundOutline=1;darkOpacity=0.05;darkOpacity2=0.1;size=5;" vertex="1" parent="n_YmGmnaLWWBgMjcNJzN-144">
          <mxGeometry x="10" y="10" width="25" height="20" as="geometry" />
        </mxCell>
        <mxCell id="n_YmGmnaLWWBgMjcNJzN-147" value="" style="shape=cube;whiteSpace=wrap;html=1;boundedLbl=1;backgroundOutline=1;darkOpacity=0.05;darkOpacity2=0.1;size=5;" vertex="1" parent="n_YmGmnaLWWBgMjcNJzN-144">
          <mxGeometry x="20" y="20" width="25" height="20" as="geometry" />
        </mxCell>
        <mxCell id="n_YmGmnaLWWBgMjcNJzN-148" value="" style="shape=document;whiteSpace=wrap;html=1;boundedLbl=1;" vertex="1" parent="n_YmGmnaLWWBgMjcNJzN-144">
          <mxGeometry x="30" y="29" width="10" height="8" as="geometry" />
        </mxCell>
        <mxCell id="n_YmGmnaLWWBgMjcNJzN-159" value="" style="group" vertex="1" connectable="0" parent="1">
          <mxGeometry x="227.5" y="210" width="45" height="40" as="geometry" />
        </mxCell>
        <mxCell id="n_YmGmnaLWWBgMjcNJzN-160" value="" style="shape=cube;whiteSpace=wrap;html=1;boundedLbl=1;backgroundOutline=1;darkOpacity=0.05;darkOpacity2=0.1;size=5;" vertex="1" parent="n_YmGmnaLWWBgMjcNJzN-159">
          <mxGeometry width="25" height="20" as="geometry" />
        </mxCell>
        <mxCell id="n_YmGmnaLWWBgMjcNJzN-161" value="" style="shape=cube;whiteSpace=wrap;html=1;boundedLbl=1;backgroundOutline=1;darkOpacity=0.05;darkOpacity2=0.1;size=5;" vertex="1" parent="n_YmGmnaLWWBgMjcNJzN-159">
          <mxGeometry x="10" y="10" width="25" height="20" as="geometry" />
        </mxCell>
        <mxCell id="n_YmGmnaLWWBgMjcNJzN-162" value="" style="shape=cube;whiteSpace=wrap;html=1;boundedLbl=1;backgroundOutline=1;darkOpacity=0.05;darkOpacity2=0.1;size=5;" vertex="1" parent="n_YmGmnaLWWBgMjcNJzN-159">
          <mxGeometry x="20" y="20" width="25" height="20" as="geometry" />
        </mxCell>
        <mxCell id="n_YmGmnaLWWBgMjcNJzN-163" value="" style="shape=document;whiteSpace=wrap;html=1;boundedLbl=1;" vertex="1" parent="n_YmGmnaLWWBgMjcNJzN-159">
          <mxGeometry x="30" y="29" width="10" height="8" as="geometry" />
        </mxCell>
        <mxCell id="n_YmGmnaLWWBgMjcNJzN-164" value="" style="group" vertex="1" connectable="0" parent="1">
          <mxGeometry x="337.5" y="210" width="45" height="40" as="geometry" />
        </mxCell>
        <mxCell id="n_YmGmnaLWWBgMjcNJzN-165" value="" style="shape=cube;whiteSpace=wrap;html=1;boundedLbl=1;backgroundOutline=1;darkOpacity=0.05;darkOpacity2=0.1;size=5;" vertex="1" parent="n_YmGmnaLWWBgMjcNJzN-164">
          <mxGeometry width="25" height="20" as="geometry" />
        </mxCell>
        <mxCell id="n_YmGmnaLWWBgMjcNJzN-166" value="" style="shape=cube;whiteSpace=wrap;html=1;boundedLbl=1;backgroundOutline=1;darkOpacity=0.05;darkOpacity2=0.1;size=5;" vertex="1" parent="n_YmGmnaLWWBgMjcNJzN-164">
          <mxGeometry x="10" y="10" width="25" height="20" as="geometry" />
        </mxCell>
        <mxCell id="n_YmGmnaLWWBgMjcNJzN-167" value="" style="shape=cube;whiteSpace=wrap;html=1;boundedLbl=1;backgroundOutline=1;darkOpacity=0.05;darkOpacity2=0.1;size=5;" vertex="1" parent="n_YmGmnaLWWBgMjcNJzN-164">
          <mxGeometry x="20" y="20" width="25" height="20" as="geometry" />
        </mxCell>
        <mxCell id="n_YmGmnaLWWBgMjcNJzN-168" value="" style="shape=document;whiteSpace=wrap;html=1;boundedLbl=1;" vertex="1" parent="n_YmGmnaLWWBgMjcNJzN-164">
          <mxGeometry x="30" y="29" width="10" height="8" as="geometry" />
        </mxCell>
        <mxCell id="n_YmGmnaLWWBgMjcNJzN-169" value="" style="group" vertex="1" connectable="0" parent="1">
          <mxGeometry x="447.5" y="210" width="45" height="40" as="geometry" />
        </mxCell>
        <mxCell id="n_YmGmnaLWWBgMjcNJzN-170" value="" style="shape=cube;whiteSpace=wrap;html=1;boundedLbl=1;backgroundOutline=1;darkOpacity=0.05;darkOpacity2=0.1;size=5;" vertex="1" parent="n_YmGmnaLWWBgMjcNJzN-169">
          <mxGeometry width="25" height="20" as="geometry" />
        </mxCell>
        <mxCell id="n_YmGmnaLWWBgMjcNJzN-171" value="" style="shape=cube;whiteSpace=wrap;html=1;boundedLbl=1;backgroundOutline=1;darkOpacity=0.05;darkOpacity2=0.1;size=5;" vertex="1" parent="n_YmGmnaLWWBgMjcNJzN-169">
          <mxGeometry x="10" y="10" width="25" height="20" as="geometry" />
        </mxCell>
        <mxCell id="n_YmGmnaLWWBgMjcNJzN-172" value="" style="shape=cube;whiteSpace=wrap;html=1;boundedLbl=1;backgroundOutline=1;darkOpacity=0.05;darkOpacity2=0.1;size=5;" vertex="1" parent="n_YmGmnaLWWBgMjcNJzN-169">
          <mxGeometry x="20" y="20" width="25" height="20" as="geometry" />
        </mxCell>
        <mxCell id="n_YmGmnaLWWBgMjcNJzN-173" value="" style="shape=document;whiteSpace=wrap;html=1;boundedLbl=1;" vertex="1" parent="n_YmGmnaLWWBgMjcNJzN-169">
          <mxGeometry x="30" y="29" width="10" height="8" as="geometry" />
        </mxCell>
        <mxCell id="n_YmGmnaLWWBgMjcNJzN-179" value="" style="group" vertex="1" connectable="0" parent="1">
          <mxGeometry x="557.5" y="210" width="45" height="40" as="geometry" />
        </mxCell>
        <mxCell id="n_YmGmnaLWWBgMjcNJzN-180" value="" style="shape=cube;whiteSpace=wrap;html=1;boundedLbl=1;backgroundOutline=1;darkOpacity=0.05;darkOpacity2=0.1;size=5;" vertex="1" parent="n_YmGmnaLWWBgMjcNJzN-179">
          <mxGeometry width="25" height="20" as="geometry" />
        </mxCell>
        <mxCell id="n_YmGmnaLWWBgMjcNJzN-181" value="" style="shape=cube;whiteSpace=wrap;html=1;boundedLbl=1;backgroundOutline=1;darkOpacity=0.05;darkOpacity2=0.1;size=5;" vertex="1" parent="n_YmGmnaLWWBgMjcNJzN-179">
          <mxGeometry x="10" y="10" width="25" height="20" as="geometry" />
        </mxCell>
        <mxCell id="n_YmGmnaLWWBgMjcNJzN-182" value="" style="shape=cube;whiteSpace=wrap;html=1;boundedLbl=1;backgroundOutline=1;darkOpacity=0.05;darkOpacity2=0.1;size=5;" vertex="1" parent="n_YmGmnaLWWBgMjcNJzN-179">
          <mxGeometry x="20" y="20" width="25" height="20" as="geometry" />
        </mxCell>
        <mxCell id="n_YmGmnaLWWBgMjcNJzN-183" value="" style="shape=document;whiteSpace=wrap;html=1;boundedLbl=1;" vertex="1" parent="n_YmGmnaLWWBgMjcNJzN-179">
          <mxGeometry x="30" y="29" width="10" height="8" as="geometry" />
        </mxCell>
        <mxCell id="n_YmGmnaLWWBgMjcNJzN-195" value="" style="group" vertex="1" connectable="0" parent="1">
          <mxGeometry x="667.5" y="210" width="45" height="40" as="geometry" />
        </mxCell>
        <mxCell id="n_YmGmnaLWWBgMjcNJzN-196" value="" style="shape=cube;whiteSpace=wrap;html=1;boundedLbl=1;backgroundOutline=1;darkOpacity=0.05;darkOpacity2=0.1;size=5;" vertex="1" parent="n_YmGmnaLWWBgMjcNJzN-195">
          <mxGeometry width="25" height="20" as="geometry" />
        </mxCell>
        <mxCell id="n_YmGmnaLWWBgMjcNJzN-197" value="" style="shape=cube;whiteSpace=wrap;html=1;boundedLbl=1;backgroundOutline=1;darkOpacity=0.05;darkOpacity2=0.1;size=5;" vertex="1" parent="n_YmGmnaLWWBgMjcNJzN-195">
          <mxGeometry x="10" y="10" width="25" height="20" as="geometry" />
        </mxCell>
        <mxCell id="n_YmGmnaLWWBgMjcNJzN-198" value="" style="shape=cube;whiteSpace=wrap;html=1;boundedLbl=1;backgroundOutline=1;darkOpacity=0.05;darkOpacity2=0.1;size=5;" vertex="1" parent="n_YmGmnaLWWBgMjcNJzN-195">
          <mxGeometry x="20" y="20" width="25" height="20" as="geometry" />
        </mxCell>
        <mxCell id="n_YmGmnaLWWBgMjcNJzN-199" value="" style="shape=document;whiteSpace=wrap;html=1;boundedLbl=1;" vertex="1" parent="n_YmGmnaLWWBgMjcNJzN-195">
          <mxGeometry x="30" y="29" width="10" height="8" as="geometry" />
        </mxCell>
        <mxCell id="n_YmGmnaLWWBgMjcNJzN-200" value="" style="endArrow=classic;html=1;rounded=0;exitX=0.305;exitY=-0.012;exitDx=0;exitDy=0;exitPerimeter=0;" edge="1" parent="1">
          <mxGeometry width="50" height="50" relative="1" as="geometry">
            <mxPoint x="29.700000000000042" y="349.03999999999996" as="sourcePoint" />
            <mxPoint x="30" y="250" as="targetPoint" />
          </mxGeometry>
        </mxCell>
        <mxCell id="n_YmGmnaLWWBgMjcNJzN-104" value="" style="shape=document;whiteSpace=wrap;html=1;boundedLbl=1;" vertex="1" parent="1">
          <mxGeometry x="20" y="290" width="22.5" height="18" as="geometry" />
        </mxCell>
        <mxCell id="n_YmGmnaLWWBgMjcNJzN-203" value="" style="rounded=0;whiteSpace=wrap;html=1;movable=0;resizable=0;rotatable=0;deletable=0;editable=0;locked=1;connectable=0;" vertex="1" parent="1">
          <mxGeometry x="1160" y="-280" width="230" height="1000" as="geometry" />
        </mxCell>
        <mxCell id="n_YmGmnaLWWBgMjcNJzN-204" value="Input n" style="whiteSpace=wrap;html=1;aspect=fixed;fillColor=#ffe6cc;strokeColor=#d79b00;" vertex="1" parent="1">
          <mxGeometry x="1190" y="-250" width="80" height="80" as="geometry" />
        </mxCell>
        <mxCell id="n_YmGmnaLWWBgMjcNJzN-205" value="" style="whiteSpace=wrap;html=1;aspect=fixed;fillColor=#e1d5e7;strokeColor=#9673a6;" vertex="1" parent="1">
          <mxGeometry x="1190" y="-150" width="80" height="80" as="geometry" />
        </mxCell>
        <mxCell id="n_YmGmnaLWWBgMjcNJzN-207" value="" style="rounded=1;whiteSpace=wrap;html=1;fillColor=#dae8fc;strokeColor=#6c8ebf;" vertex="1" parent="1">
          <mxGeometry x="1190" y="-50" width="80" height="70" as="geometry" />
        </mxCell>
        <mxCell id="n_YmGmnaLWWBgMjcNJzN-208" value="Step N" style="whiteSpace=wrap;html=1;aspect=fixed;fillColor=#fff2cc;strokeColor=#d6b656;verticalAlign=top;" vertex="1" parent="1">
          <mxGeometry x="1190" y="40" width="80" height="80" as="geometry" />
        </mxCell>
        <mxCell id="n_YmGmnaLWWBgMjcNJzN-209" value="" style="group" vertex="1" connectable="0" parent="1">
          <mxGeometry x="1207.5" y="70" width="45" height="40" as="geometry" />
        </mxCell>
        <mxCell id="n_YmGmnaLWWBgMjcNJzN-210" value="" style="shape=cube;whiteSpace=wrap;html=1;boundedLbl=1;backgroundOutline=1;darkOpacity=0.05;darkOpacity2=0.1;size=5;" vertex="1" parent="n_YmGmnaLWWBgMjcNJzN-209">
          <mxGeometry width="25" height="20" as="geometry" />
        </mxCell>
        <mxCell id="n_YmGmnaLWWBgMjcNJzN-211" value="" style="shape=cube;whiteSpace=wrap;html=1;boundedLbl=1;backgroundOutline=1;darkOpacity=0.05;darkOpacity2=0.1;size=5;" vertex="1" parent="n_YmGmnaLWWBgMjcNJzN-209">
          <mxGeometry x="10" y="10" width="25" height="20" as="geometry" />
        </mxCell>
        <mxCell id="n_YmGmnaLWWBgMjcNJzN-212" value="" style="shape=cube;whiteSpace=wrap;html=1;boundedLbl=1;backgroundOutline=1;darkOpacity=0.05;darkOpacity2=0.1;size=5;" vertex="1" parent="n_YmGmnaLWWBgMjcNJzN-209">
          <mxGeometry x="20" y="20" width="25" height="20" as="geometry" />
        </mxCell>
        <mxCell id="n_YmGmnaLWWBgMjcNJzN-213" value="" style="shape=document;whiteSpace=wrap;html=1;boundedLbl=1;" vertex="1" parent="n_YmGmnaLWWBgMjcNJzN-209">
          <mxGeometry x="30" y="29" width="10" height="8" as="geometry" />
        </mxCell>
        <mxCell id="n_YmGmnaLWWBgMjcNJzN-221" value="" style="group" vertex="1" connectable="0" parent="1">
          <mxGeometry x="1207.5" y="130" width="45" height="40" as="geometry" />
        </mxCell>
        <mxCell id="n_YmGmnaLWWBgMjcNJzN-222" value="" style="shape=cube;whiteSpace=wrap;html=1;boundedLbl=1;backgroundOutline=1;darkOpacity=0.05;darkOpacity2=0.1;size=5;" vertex="1" parent="n_YmGmnaLWWBgMjcNJzN-221">
          <mxGeometry width="25" height="20" as="geometry" />
        </mxCell>
        <mxCell id="n_YmGmnaLWWBgMjcNJzN-223" value="" style="shape=cube;whiteSpace=wrap;html=1;boundedLbl=1;backgroundOutline=1;darkOpacity=0.05;darkOpacity2=0.1;size=5;" vertex="1" parent="n_YmGmnaLWWBgMjcNJzN-221">
          <mxGeometry x="10" y="10" width="25" height="20" as="geometry" />
        </mxCell>
        <mxCell id="n_YmGmnaLWWBgMjcNJzN-224" value="" style="shape=cube;whiteSpace=wrap;html=1;boundedLbl=1;backgroundOutline=1;darkOpacity=0.05;darkOpacity2=0.1;size=5;" vertex="1" parent="n_YmGmnaLWWBgMjcNJzN-221">
          <mxGeometry x="20" y="20" width="25" height="20" as="geometry" />
        </mxCell>
        <mxCell id="n_YmGmnaLWWBgMjcNJzN-226" value="" style="shape=document;whiteSpace=wrap;html=1;boundedLbl=1;" vertex="1" parent="1">
          <mxGeometry x="1190" y="185" width="80" height="70" as="geometry" />
        </mxCell>
        <mxCell id="n_YmGmnaLWWBgMjcNJzN-227" value="" style="whiteSpace=wrap;html=1;shape=mxgraph.basic.document;fillColor=#e1d5e7;strokeColor=#9673a6;" vertex="1" parent="1">
          <mxGeometry x="1200" y="269" width="60" height="60" as="geometry" />
        </mxCell>
        <mxCell id="n_YmGmnaLWWBgMjcNJzN-229" value="Docker Container Registry" style="rounded=0;whiteSpace=wrap;html=1;fillColor=#60a917;fontColor=#ffffff;strokeColor=#2D7600;" vertex="1" parent="1">
          <mxGeometry x="1190" y="350" width="80" height="80" as="geometry" />
        </mxCell>
        <mxCell id="n_YmGmnaLWWBgMjcNJzN-230" value="User" style="shape=umlActor;verticalLabelPosition=bottom;verticalAlign=top;html=1;outlineConnect=0;" vertex="1" parent="1">
          <mxGeometry x="1215" y="450" width="30" height="60" as="geometry" />
        </mxCell>
        <mxCell id="n_YmGmnaLWWBgMjcNJzN-231" value="User" style="shape=umlActor;verticalLabelPosition=bottom;verticalAlign=top;html=1;outlineConnect=0;" vertex="1" parent="1">
          <mxGeometry x="1090" y="240" width="30" height="60" as="geometry" />
        </mxCell>
        <mxCell id="n_YmGmnaLWWBgMjcNJzN-233" value="" style="endArrow=classic;html=1;rounded=0;" edge="1" parent="1">
          <mxGeometry relative="1" as="geometry">
            <mxPoint x="1195" y="560" as="sourcePoint" />
            <mxPoint x="1265" y="560" as="targetPoint" />
          </mxGeometry>
        </mxCell>
        <mxCell id="n_YmGmnaLWWBgMjcNJzN-234" value="Label" style="edgeLabel;resizable=0;html=1;align=center;verticalAlign=middle;" connectable="0" vertex="1" parent="n_YmGmnaLWWBgMjcNJzN-233">
          <mxGeometry relative="1" as="geometry" />
        </mxCell>
        <mxCell id="n_YmGmnaLWWBgMjcNJzN-235" value="" style="shape=flexArrow;endArrow=classic;html=1;rounded=0;exitX=1.003;exitY=0.443;exitDx=0;exitDy=0;exitPerimeter=0;" edge="1" parent="1">
          <mxGeometry width="50" height="50" relative="1" as="geometry">
            <mxPoint x="1200" y="600" as="sourcePoint" />
            <mxPoint x="1260" y="600" as="targetPoint" />
          </mxGeometry>
        </mxCell>
        <mxCell id="n_YmGmnaLWWBgMjcNJzN-237" value="" style="endArrow=classic;html=1;rounded=0;dashed=1;" edge="1" parent="1">
          <mxGeometry width="50" height="50" relative="1" as="geometry">
            <mxPoint x="1200" y="640" as="sourcePoint" />
            <mxPoint x="1270" y="640" as="targetPoint" />
          </mxGeometry>
        </mxCell>
        <mxCell id="n_YmGmnaLWWBgMjcNJzN-238" value="External data provided by user" style="text;html=1;strokeColor=none;fillColor=none;align=center;verticalAlign=middle;whiteSpace=wrap;rounded=0;" vertex="1" parent="1">
          <mxGeometry x="1280" y="-225" width="100" height="30" as="geometry" />
        </mxCell>
        <mxCell id="n_YmGmnaLWWBgMjcNJzN-239" value="Data Store" style="text;html=1;strokeColor=none;fillColor=none;align=center;verticalAlign=middle;whiteSpace=wrap;rounded=0;" vertex="1" parent="1">
          <mxGeometry x="1300" y="-125" width="60" height="30" as="geometry" />
        </mxCell>
        <mxCell id="n_YmGmnaLWWBgMjcNJzN-240" value="Step orchestrator" style="text;html=1;strokeColor=none;fillColor=none;align=center;verticalAlign=middle;whiteSpace=wrap;rounded=0;" vertex="1" parent="1">
          <mxGeometry x="1285" y="-30" width="90" height="30" as="geometry" />
        </mxCell>
        <mxCell id="n_YmGmnaLWWBgMjcNJzN-241" value="Step" style="text;html=1;strokeColor=none;fillColor=none;align=center;verticalAlign=middle;whiteSpace=wrap;rounded=0;" vertex="1" parent="1">
          <mxGeometry x="1300" y="65" width="60" height="30" as="geometry" />
        </mxCell>
        <mxCell id="n_YmGmnaLWWBgMjcNJzN-242" value="Container Instance" style="text;html=1;strokeColor=none;fillColor=none;align=center;verticalAlign=middle;whiteSpace=wrap;rounded=0;" vertex="1" parent="1">
          <mxGeometry x="1300" y="140" width="60" height="30" as="geometry" />
        </mxCell>
        <mxCell id="n_YmGmnaLWWBgMjcNJzN-243" value="Docker Container" style="text;html=1;strokeColor=none;fillColor=none;align=center;verticalAlign=middle;whiteSpace=wrap;rounded=0;" vertex="1" parent="1">
          <mxGeometry x="1300" y="200" width="60" height="30" as="geometry" />
        </mxCell>
        <mxCell id="n_YmGmnaLWWBgMjcNJzN-244" value="File Store" style="text;html=1;strokeColor=none;fillColor=none;align=center;verticalAlign=middle;whiteSpace=wrap;rounded=0;" vertex="1" parent="1">
          <mxGeometry x="1300" y="278" width="60" height="30" as="geometry" />
        </mxCell>
        <mxCell id="n_YmGmnaLWWBgMjcNJzN-245" value="Step container register" style="text;html=1;strokeColor=none;fillColor=none;align=center;verticalAlign=middle;whiteSpace=wrap;rounded=0;" vertex="1" parent="1">
          <mxGeometry x="1285" y="375" width="90" height="30" as="geometry" />
        </mxCell>
        <mxCell id="n_YmGmnaLWWBgMjcNJzN-246" value="Platform user" style="text;html=1;strokeColor=none;fillColor=none;align=center;verticalAlign=middle;whiteSpace=wrap;rounded=0;" vertex="1" parent="1">
          <mxGeometry x="1300" y="465" width="60" height="30" as="geometry" />
        </mxCell>
        <mxCell id="n_YmGmnaLWWBgMjcNJzN-247" value="Data flow" style="text;html=1;strokeColor=none;fillColor=none;align=center;verticalAlign=middle;whiteSpace=wrap;rounded=0;" vertex="1" parent="1">
          <mxGeometry x="1300" y="540" width="60" height="30" as="geometry" />
        </mxCell>
        <mxCell id="n_YmGmnaLWWBgMjcNJzN-248" value="API Interaction with platform" style="text;html=1;strokeColor=none;fillColor=none;align=center;verticalAlign=middle;whiteSpace=wrap;rounded=0;" vertex="1" parent="1">
          <mxGeometry x="1290" y="580" width="80" height="30" as="geometry" />
        </mxCell>
        <mxCell id="n_YmGmnaLWWBgMjcNJzN-249" value="Data flow" style="text;html=1;strokeColor=none;fillColor=none;align=center;verticalAlign=middle;whiteSpace=wrap;rounded=0;" vertex="1" parent="1">
          <mxGeometry x="1300" y="630" width="60" height="30" as="geometry" />
        </mxCell>
        <mxCell id="n_YmGmnaLWWBgMjcNJzN-250" value="Execution Platform" style="text;html=1;strokeColor=none;fillColor=none;align=center;verticalAlign=middle;whiteSpace=wrap;rounded=0;" vertex="1" parent="1">
          <mxGeometry x="700" width="60" height="30" as="geometry" />
        </mxCell>
        <mxCell id="n_YmGmnaLWWBgMjcNJzN-251" value="" style="endArrow=classic;startArrow=classic;html=1;rounded=0;fillColor=#f8cecc;strokeColor=#b85450;" edge="1" parent="1">
          <mxGeometry width="50" height="50" relative="1" as="geometry">
            <mxPoint x="1195" y="680" as="sourcePoint" />
            <mxPoint x="1265" y="680" as="targetPoint" />
          </mxGeometry>
        </mxCell>
        <mxCell id="n_YmGmnaLWWBgMjcNJzN-252" value="User interaction&amp;nbsp;" style="text;html=1;strokeColor=none;fillColor=none;align=center;verticalAlign=middle;whiteSpace=wrap;rounded=0;" vertex="1" parent="1">
          <mxGeometry x="1300" y="670" width="60" height="30" as="geometry" />
        </mxCell>
        <mxCell id="n_YmGmnaLWWBgMjcNJzN-253" value="" style="endArrow=classic;html=1;rounded=0;entryX=0.25;entryY=1;entryDx=0;entryDy=0;dashed=1;exitX=1;exitY=0.25;exitDx=0;exitDy=0;" edge="1" parent="1" source="n_YmGmnaLWWBgMjcNJzN-3" target="n_YmGmnaLWWBgMjcNJzN-9">
          <mxGeometry width="50" height="50" relative="1" as="geometry">
            <mxPoint x="275" y="333" as="sourcePoint" />
            <mxPoint x="170" y="270" as="targetPoint" />
          </mxGeometry>
        </mxCell>
        <mxCell id="n_YmGmnaLWWBgMjcNJzN-254" value="" style="endArrow=classic;html=1;rounded=0;exitX=0.75;exitY=1;exitDx=0;exitDy=0;dashed=1;entryX=1;entryY=0.5;entryDx=0;entryDy=0;" edge="1" parent="1" source="n_YmGmnaLWWBgMjcNJzN-9" target="n_YmGmnaLWWBgMjcNJzN-3">
          <mxGeometry width="50" height="50" relative="1" as="geometry">
            <mxPoint x="130" y="270" as="sourcePoint" />
            <mxPoint x="275" y="355" as="targetPoint" />
          </mxGeometry>
        </mxCell>
        <mxCell id="n_YmGmnaLWWBgMjcNJzN-255" value="" style="endArrow=classic;startArrow=classic;html=1;rounded=0;fillColor=#f8cecc;strokeColor=#b85450;exitX=1;exitY=0.5;exitDx=0;exitDy=0;exitPerimeter=0;entryX=0;entryY=0.3333333333333333;entryDx=0;entryDy=0;entryPerimeter=0;" edge="1" parent="1" source="n_YmGmnaLWWBgMjcNJzN-54" target="n_YmGmnaLWWBgMjcNJzN-231">
          <mxGeometry width="50" height="50" relative="1" as="geometry">
            <mxPoint x="1205" y="690" as="sourcePoint" />
            <mxPoint x="1275" y="690" as="targetPoint" />
          </mxGeometry>
        </mxCell>
        <mxCell id="n_YmGmnaLWWBgMjcNJzN-256" value="" style="endArrow=classic;startArrow=classic;html=1;rounded=0;fillColor=#f8cecc;strokeColor=#b85450;" edge="1" parent="1">
          <mxGeometry width="50" height="50" relative="1" as="geometry">
            <mxPoint x="1025" y="329.47" as="sourcePoint" />
            <mxPoint x="1090" y="280" as="targetPoint" />
          </mxGeometry>
        </mxCell>
      </root>
    </mxGraphModel>
  </diagram>
</mxfile>
